Coordinates
version=1
nRows=7
nColumns=40
inDegrees=yes

Units are S.I. units (second, meters, Newtons, ...)
Angles are in degrees.

endheader
time	pelvis_tilt	pelvis_list	pelvis_rotation	pelvis_tx	pelvis_ty	pelvis_tz	hip_flexion_r	hip_adduction_r	hip_rotation_r	knee_angle_r	knee_angle_r_beta	ankle_angle_r	subtalar_angle_r	mtp_angle_r	hip_flexion_l	hip_adduction_l	hip_rotation_l	knee_angle_l	knee_angle_l_beta	ankle_angle_l	subtalar_angle_l	mtp_angle_l	lumbar_extension	lumbar_bending	lumbar_rotation	arm_flex_r	arm_add_r	arm_rot_r	elbow_flex_r	pro_sup_r	wrist_flex_r	wrist_dev_r	arm_flex_l	arm_add_l	arm_rot_l	elbow_flex_l	pro_sup_l	wrist_flex_l	wrist_dev_l
      0.00000000	     -5.56046083	     -1.28533249	      1.21142220	     -1.05313622	      0.88569077	     -0.99314250	      5.54999255	      3.99578334	    -20.39235895	    -15.55579451	     -0.27149983	     10.92025752	      3.35583710	     -2.89606931	     30.05460258	      6.39012838	      6.55244202	    -53.71559037	     -0.93751391	      9.64695657	     18.90156055	     22.36931824	     -3.26896723	      0.37183900	      0.93177783	      3.90007023	    -10.27475924	     -7.69360352	     36.08405351	     89.95437384	      0.00000000	      0.00000000	     -3.42380220	      7.63748075	     22.11036661	     29.71405278	     89.95437384	      0.00000000	      0.00000000
      0.01000000	     -5.72177105	     -1.36073677	      0.93190665	     -1.04592032	      0.88510586	     -0.99284368	      5.12418149	      4.12283957	    -20.50705280	    -15.37254240	     -0.26830148	     11.07008991	      3.36204021	     -2.91464250	     31.03034684	      6.45815677	      6.83318647	    -52.10906953	     -0.90947483	      9.84221863	     18.84005991	     22.19003705	     -3.07955703	      0.47672403	      0.94730336	      4.11724107	    -10.33179690	     -7.67095951	     36.57820832	     89.95437384	      0.00000000	      0.00000000	     -3.76081376	      7.48688988	     22.13517687	     29.33537955	     89.95437384	      0.00000000	      0.00000000
      0.02000000	     -5.61419834	     -1.07560985	      0.53922548	     -1.03830169	      0.88510480	     -0.99279311	      4.23467689	      3.88242138	    -20.20998269	    -14.95545873	     -0.26102200	     11.35530153	      3.87049914	     -3.02384472	     31.38146257	      6.08515078	      7.24728277	    -49.98322313	     -0.87237181	      9.95787691	     18.70037057	     21.95761497	     -3.22223540	      0.19434027	      1.23596429	      4.01077927	    -10.50501539	     -7.58335668	     37.56527089	     89.95437384	      0.00000000	      0.00000000	     -3.75741802	      7.27221590	     22.58161379	     28.60245661	     89.95437384	      0.00000000	      0.00000000
      0.03000000	     -5.79270580	     -1.21679128	      0.30272956	     -1.03103776	      0.88436934	     -0.99260064	      3.88343557	      4.04125351	    -20.37195982	    -14.95389764	     -0.26099475	     11.46708992	      3.84853074	     -3.03051773	     32.27052503	      6.23810724	      7.58331338	    -48.08031691	     -0.83915984	      9.97336435	     18.45759485	     21.70871269	     -3.01918323	      0.35908308	      1.20488480	      4.16827116	    -10.56676038	     -7.54018214	     38.12033238	     89.95437384	      0.00000000	      0.00000000	     -4.15893421	      7.13443248	     22.62103984	     28.46615435	     89.95437384	      0.00000000	      0.00000000
      0.04000000	     -5.85298378	     -0.89299928	     -0.07209787	     -1.02382420	      0.88411485	     -0.99276769	      3.32689164	      3.67837473	    -20.10406074	    -14.75361730	     -0.25749920	     11.61351400	      4.24783498	     -3.11256051	     32.67958119	      5.73924573	      7.73633317	    -45.58714091	     -0.79564571	      9.47711031	     17.91463086	     21.22424812	     -3.03657589	      0.00786279	      1.46114513	      4.09635931	    -10.70595247	     -7.42877624	     38.99161388	     89.95437384	      0.00000000	      0.00000000	     -4.25696637	      6.94369233	     22.97066356	     28.07933048	     89.95437384	      0.00000000	      0.00000000
      0.05000000	     -5.90770956	     -0.81801873	     -0.33166912	     -1.01636454	      0.88367725	     -0.99295490	      2.87727433	      3.55620641	    -20.10521108	    -14.79770472	     -0.25826867	     11.68782373	      4.41135176	     -3.20949899	     33.11445815	      5.59374620	      7.99727373	    -43.20197018	     -0.75401662	      9.06742432	     17.31221520	     20.71164432	     -3.00261139	     -0.06621549	      1.49738900	      4.14615832	    -10.80078751	     -7.28195096	     39.66636572	     89.95437384	      0.00000000	      0.00000000	     -4.49194972	      6.77658072	     23.17417871	     27.81182472	     89.95437384	      0.00000000	      0.00000000
      0.06000000	     -5.67533846	     -0.42468111	     -0.53761454	     -1.00848183	      0.88367398	     -0.99350975	      2.19260920	      2.76640486	    -21.37857566	    -15.18440655	     -0.26501789	     12.02775123	      6.88262379	     -5.03935270	     33.01523505	      5.12573605	      8.51642602	    -40.50736779	     -0.70698694	      8.01165107	     16.93207503	     15.73751167	     -3.30318187	     -0.51255253	      1.48524128	      4.16697985	    -10.84559768	     -7.28946638	     40.38313848	     89.95437384	      0.00000000	      0.00000000	     -4.61467128	      6.62771405	     23.60401341	     27.43960562	     89.95437384	      0.00000000	      0.00000000
